<svg width="7" height="9" viewBox="0 0 7 9" fill="none" xmlns="http://www.w3.org/2000/svg">
<path d="M5.47456 4.87477C5.45008 4.83782 5.42 4.80728 5.38607 4.78489C5.35214 4.7625 5.315 4.74871 5.2768 4.74431C5.2386 4.7399 5.20008 4.74497 5.16345 4.75921C5.12681 4.77346 5.09278 4.79661 5.06331 4.82733L3.79164 6.15185V1.82435C3.79164 1.72758 3.76092 1.63477 3.70622 1.56634C3.65152 1.49792 3.57733 1.45947 3.49998 1.45947C3.42262 1.45947 3.34844 1.49792 3.29374 1.56634C3.23904 1.63477 3.20831 1.72758 3.20831 1.82435V6.15185L1.93664 4.82733C1.90715 4.79666 1.87312 4.77356 1.83649 4.75935C1.79986 4.74514 1.76135 4.74009 1.72317 4.74449C1.68498 4.7489 1.64786 4.76267 1.61392 4.78502C1.57999 4.80737 1.54991 4.83787 1.52539 4.87477C1.50088 4.91166 1.48242 4.95424 1.47106 5.00006C1.45969 5.04588 1.45566 5.09406 1.45918 5.14183C1.4627 5.18961 1.47371 5.23604 1.49158 5.2785C1.50944 5.32095 1.53382 5.35858 1.56331 5.38925L3.31331 7.21366L3.35706 7.2465L3.39498 7.27204C3.46255 7.30466 3.53741 7.30466 3.60498 7.27204L3.64289 7.2465L3.68664 7.21366L5.43664 5.38925C5.46618 5.35862 5.49059 5.321 5.50849 5.27854C5.52638 5.23609 5.5374 5.18964 5.54093 5.14185C5.54445 5.09406 5.5404 5.04587 5.52901 5.00004C5.51762 4.95421 5.49912 4.91164 5.47456 4.87477Z" fill="#903217"/>
</svg>
